<?xml version="1.0" standalone="no"?>
<!DOCTYPE svg PUBLIC "-//W3C//DTD SVG 20010904//EN"
 "http://www.w3.org/TR/2001/REC-SVG-20010904/DTD/svg10.dtd">
<svg version="1.0" xmlns="http://www.w3.org/2000/svg"
 width="512.000000pt" height="512.000000pt" viewBox="0 0 512.000000 512.000000"
 preserveAspectRatio="xMidYMid meet">
<metadata>
Created by potrace 1.11, written by Peter Selinger 2001-2013
</metadata>
<g transform="translate(0.000000,512.000000) scale(0.100000,-0.100000)"
fill="#000000" stroke="none">
<path d="M5017 5114 c-1 -1 -33 -4 -72 -8 -38 -3 -81 -8 -95 -11 -13 -2 -42
-7 -65 -11 -38 -5 -179 -32 -200 -38 -5 -2 -28 -7 -50 -11 -22 -5 -42 -10 -45
-10 -3 -1 -18 -5 -35 -9 -16 -4 -37 -10 -45 -13 -8 -4 -19 -7 -25 -8 -5 -1
-13 -3 -17 -5 -5 -1 -16 -3 -25 -4 -10 -1 -23 -5 -30 -9 -6 -4 -23 -8 -37 -9
-14 -1 -26 -5 -26 -9 0 -3 -6 -6 -12 -7 -21 -1 -42 -7 -53 -13 -5 -4 -23 -10
-40 -14 -34 -10 -35 -10 -55 -18 -32 -12 -96 -32 -105 -32 -5 0 -16 -6 -23
-12 -7 -7 -21 -13 -31 -13 -9 0 -22 -5 -29 -12 -7 -7 -12 -9 -12 -5 0 3 -33
-7 -72 -24 -40 -16 -82 -34 -93 -38 -93 -38 -280 -126 -415 -195 -74 -38 -152
-77 -172 -87 -20 -11 -40 -23 -43 -29 -3 -5 -15 -10 -26 -10 -10 0 -19 -4 -19
-10 0 -5 -15 -16 -32 -24 -35 -16 -106 -56 -123 -69 -5 -4 -48 -31 -93 -60
-46 -29 -96 -60 -110 -69 -15 -10 -37 -23 -49 -29 -13 -7 -23 -16 -23 -21 0
-4 -5 -8 -11 -8 -6 0 -37 -20 -69 -45 -32 -25 -63 -45 -68 -45 -6 0 -12 -4
-14 -8 -1 -4 -25 -23 -53 -42 -27 -19 -56 -40 -65 -47 -8 -6 -75 -58 -148
-114 -72 -55 -132 -106 -132 -111 0 -5 -4 -7 -9 -3 -6 3 -13 -1 -18 -8 -12
-20 -104 -87 -113 -82 -7 4 -109 11 -281 19 -31 2 -62 7 -69 11 -9 6 -11 4 -5
-5 6 -9 4 -11 -5 -5 -7 5 -43 10 -79 11 -36 2 -95 5 -131 8 -61 3 -115 -9
-105 -24 3 -4 -11 -18 -30 -31 -19 -13 -35 -27 -35 -31 0 -5 -6 -8 -14 -8 -8
0 -18 -9 -21 -21 -4 -11 -9 -18 -12 -16 -2 3 -12 -2 -22 -11 -9 -10 -48 -44
-86 -77 -38 -33 -76 -67 -85 -75 -9 -8 -47 -42 -85 -75 -39 -32 -78 -67 -88
-77 -10 -10 -22 -18 -28 -18 -6 0 -7 -4 -4 -10 3 -5 1 -10 -5 -10 -7 0 -27
-15 -46 -32 -19 -18 -46 -43 -59 -55 -13 -13 -29 -23 -35 -23 -6 0 -8 -4 -5
-10 3 -5 1 -10 -4 -10 -6 0 -26 -15 -44 -32 -19 -18 -71 -64 -117 -103 -46
-38 -98 -84 -116 -102 -18 -17 -35 -29 -38 -25 -3 3 -6 0 -6 -6 0 -7 -19 -25
-42 -42 -22 -16 -37 -30 -32 -30 5 0 -2 -8 -16 -17 l-24 -17 29 -8 c16 -4 34
-3 40 2 7 6 15 7 19 3 3 -4 12 -8 19 -9 7 -1 28 -5 47 -8 91 -17 107 -19 133
-20 15 -1 27 -5 27 -10 0 -4 9 -6 20 -3 11 3 20 1 20 -4 0 -5 3 -8 8 -8 4 1 9
1 12 -1 3 -1 16 -4 30 -6 33 -6 220 -70 295 -101 93 -39 270 -126 273 -135 2
-4 9 -8 15 -8 7 0 39 -17 72 -38 50 -31 60 -41 58 -62 -2 -28 -12 -213 -13
-247 0 -17 -10 -23 -52 -34 -29 -7 -59 -12 -65 -12 -7 0 -13 -4 -13 -8 0 -4
-9 -6 -20 -4 -11 2 -22 -1 -25 -6 -4 -5 -11 -7 -16 -4 -5 4 -9 1 -9 -5 0 -6
-5 -8 -10 -5 -6 4 -16 2 -23 -3 -7 -5 -27 -13 -45 -17 -17 -3 -32 -10 -32 -14
0 -4 -6 -8 -12 -8 -7 0 -30 -7 -51 -16 -20 -9 -39 -15 -41 -14 -2 1 -12 -6
-22 -15 -11 -9 -22 -16 -26 -15 -9 3 -79 -40 -151 -94 -56 -42 -137 -126 -161
-168 -5 -9 -16 -22 -23 -29 -7 -7 -13 -19 -13 -27 0 -7 -4 -15 -8 -17 -9 -3
-76 -139 -87 -175 -3 -13 -10 -23 -14 -23 -4 0 -7 -8 -8 -17 -1 -10 -11 -45
-23 -78 -11 -33 -23 -71 -26 -85 -3 -14 -8 -34 -11 -45 -4 -11 -8 -23 -9 -27
-1 -5 -2 -9 -4 -10 -4 -6 -21 -85 -23 -111 -1 -9 -4 -17 -7 -17 -3 0 -6 -10
-7 -22 -1 -13 -3 -32 -6 -43 -2 -11 -8 -47 -12 -80 -4 -33 -12 -66 -17 -72 -7
-9 -7 -13 1 -13 7 0 9 -5 6 -10 -9 -14 -15 -49 -20 -118 -3 -31 -8 -88 -11
-127 -4 -38 -7 -103 -8 -142 -1 -40 -5 -73 -11 -73 -5 0 -4 -5 2 -11 7 -7 8
-21 2 -42 -12 -42 0 -47 96 -42 44 3 99 6 123 7 24 0 45 5 48 9 2 5 15 4 28
-1 13 -5 26 -6 29 -4 3 3 28 7 56 10 140 12 256 26 261 33 4 5 24 8 98 14 12
1 22 4 22 7 0 3 8 6 17 7 18 2 42 6 93 18 14 3 38 8 54 11 16 2 33 7 38 10 10
7 57 17 81 18 9 0 17 4 17 8 0 4 6 8 14 8 8 0 36 9 63 21 26 11 56 21 66 22 9
1 17 5 17 9 0 4 4 8 10 8 10 0 119 51 155 73 63 38 145 99 175 132 19 20 45
46 57 58 13 11 23 24 23 29 0 9 10 23 42 58 9 10 14 21 10 24 -3 3 1 6 8 6 7
0 10 3 7 6 -4 4 3 20 14 35 11 16 21 38 22 49 1 11 4 20 8 20 8 0 43 78 44 97
0 7 5 17 12 24 6 6 9 18 6 25 -3 8 -1 14 4 14 9 0 11 6 15 50 1 11 6 20 10 20
4 0 11 18 14 40 4 22 11 43 15 46 5 3 7 10 3 15 -3 5 0 16 6 24 6 8 9 19 6 24
-11 17 12 22 121 27 60 2 118 6 131 9 30 5 52 -4 52 -21 0 -8 5 -14 11 -14 5
0 8 -4 4 -9 -3 -5 -1 -12 4 -16 11 -6 21 -24 107 -195 63 -126 95 -205 139
-335 21 -63 49 -160 46 -160 -1 0 5 -22 13 -50 8 -27 17 -66 19 -85 3 -19 6
-35 7 -35 1 0 3 -18 6 -39 2 -21 6 -55 8 -75 3 -20 5 -47 5 -61 1 -23 5 -20
54 31 28 31 71 78 93 105 23 27 50 58 60 70 11 12 44 50 74 84 30 35 74 84 97
109 23 25 43 52 43 59 0 7 4 11 8 8 5 -3 15 4 23 16 17 25 76 94 107 124 12
13 22 28 22 34 0 6 5 8 10 5 6 -3 10 -3 10 2 0 4 15 25 34 46 19 21 50 57 69
80 19 23 46 54 58 68 76 83 109 121 109 124 0 2 19 24 43 48 81 86 85 93 82
155 -2 31 -4 58 -5 60 -1 1 -2 21 -2 45 0 23 -4 47 -9 52 -4 6 -4 17 1 25 4 7
4 24 -1 37 -6 18 -6 22 3 17 7 -4 8 -3 4 5 -8 13 -17 120 -19 243 -1 43 -5 78
-8 78 -13 0 -2 45 16 64 11 12 34 38 50 60 17 21 37 46 45 56 50 60 211 274
285 377 38 54 73 100 77 101 4 2 8 7 8 12 0 5 25 44 55 88 30 44 55 83 55 86
0 4 5 12 10 19 20 22 90 136 90 145 0 4 8 17 18 28 9 11 24 33 33 50 31 58 44
79 54 86 7 5 7 8 0 8 -5 0 -3 6 6 13 16 12 18 16 27 50 2 9 9 17 15 17 6 0 7
3 4 6 -4 4 2 19 12 33 30 42 218 431 221 459 1 4 7 16 14 27 7 11 20 43 30 70
10 28 24 64 31 80 14 34 28 68 30 75 0 3 11 32 24 65 12 33 24 67 26 75 2 8
10 34 19 58 8 23 13 42 9 42 -3 0 -1 6 4 13 11 13 27 67 25 80 -1 4 3 7 9 7 5
0 7 5 4 10 -4 6 -1 18 6 26 6 8 9 17 6 20 -3 3 1 21 9 40 8 19 12 39 9 44 -4
6 -1 10 4 10 6 0 10 3 9 8 -1 4 4 32 12 62 7 30 14 62 15 70 1 8 4 24 8 35 3
11 8 32 11 48 3 15 7 35 10 45 3 9 7 35 11 57 3 22 10 65 15 95 12 72 19 139
25 227 l4 73 -50 -2 c-28 -2 -51 -3 -52 -4z"/>
</g>
</svg>
